<svg data-v-0dd9719b="" version="1.0" xmlns="http://www.w3.org/2000/svg" xmlns:xlink="http://www.w3.org/1999/xlink" width="680" height="500" viewBox="0 0 340.000000 250.000000" preserveAspectRatio="xMidYMid meet" color-interpolation-filters="sRGB" style="">   <g data-v-0dd9719b="" class="iconmbgsvg" transform="translate(76.11509704589844,93.57656478881836)"><g fill="#0e0906" hollow-target="text"><g transform="translate(135.11980056762695,0)" mask="url(#1a050deb-f995-4c6f-b821-1f46c28df0b2)"><g><rect fill="#0e0906" fill-opacity="0" stroke-width="2" x="0" y="0" width="52.64999999999981" height="53.053738953435456" class="image-rect"></rect> <g class="image-svg-svg"><g fill="url(#E4XPS9qPGSwHx9gQPaFgM)" data-gra-ignore="true"><svg x="0" y="0" width="52.64999999999981" height="53.053738953435456" style="overflow: visible;"><svg xmlns="http://www.w3.org/2000/svg" viewBox="0 0 2478 2497" style="overflow: visible;"><g><path d="M456.38 2052.32V2497l415.83-236.41a1323.34 1323.34 0 0 0 366.79 51.47c684.33 0 1239-517.61 1239-1156S1923.33 0 1239 0 0 517.57 0 1156c0 361.52 177.86 684.33 456.38 896.28z"></path></g></svg></svg></g><defs><pattern id="E4XPS9qPGSwHx9gQPaFgM" x="0" y="82.5" width="165" height="165" viewBox="0 0 100 100" preserveAspectRatio="xMidYMid meet" patternTransform="matrix(1,0,0,1,0,0)" patternUnits="userSpaceOnUse"><g data-gra="path-name" fill="#E69138"><svg width="100" height="100" viewBox="0 0 100 100" xmlns="http://www.w3.org/2000/svg">
  <g stroke="none" stroke-width="1" fill-rule="evenodd">
    <g transform="translate(-514.000000, -2469.000000)">
      <path d="M519.499,2569 L516.375,2569 L527.583314,2557.79164 L614,2471.374 L614,2474.499 L519.499,2569 Z M614,2477.624 L614,2480.749 L525.749,2569 L522.624,2569 L614,2477.624 Z M614,2483.874 L614,2486.999 L531.999,2569 L528.874,2569 L614,2483.874 Z M614,2490.124 L614,2493.249 L538.249,2569 L535.124,2569 L614,2490.124 Z M614,2496.374 L614,2499.499 L544.499,2569 L541.374,2569 L614,2496.374 Z M614,2502.624 L614,2505.749 L550.749,2569 L547.624,2569 L614,2502.624 Z M614,2508.874 L614,2511.999 L556.999,2569 L553.874,2569 L614,2508.874 Z M614,2515.124 L614,2518.249 L563.249,2569 L560.124,2569 L614,2515.124 Z M614,2521.374 L614,2524.499 L569.499,2569 L566.374,2569 L614,2521.374 Z M614,2527.624 L614,2530.749 L575.749,2569 L572.624,2569 L614,2527.624 Z M614,2533.874 L614,2536.999 L581.999,2569 L578.874,2569 L614,2533.874 Z M614,2540.124 L614,2543.249 L588.249,2569 L585.124,2569 L614,2540.124 Z M614,2546.374 L614,2549.499 L594.499,2569 L591.374,2569 L614,2546.374 Z M614,2552.624 L614,2555.749 L600.749,2569 L597.624,2569 L614,2552.624 Z M614,2558.874 L614,2561.999 L606.999,2569 L603.874,2569 L614,2558.874 Z M614,2565.124 L614,2568.249 L613.249,2569 L610.124,2569 L614,2565.124 Z M514,2568.249 L514,2565.125 L527.583314,2551.54149 L610.124,2469 L613.25,2469 L608.833372,2473.41673 L540.083275,2542.16665 L521.333333,2560.91467 L521.333333,2560.91663 L514,2568.249 Z M514,2561.999 L514,2558.875 L527.583314,2545.29165 L599.458245,2473.41673 L603.875,2469 L607,2469 L602.583236,2473.41673 L514,2561.999 Z M514,2555.749 L514,2552.625 L527.583314,2539.04166 L597.624,2469 L600.75,2469 L596.333411,2473.41673 L514,2555.749 Z M514,2549.499 L514,2546.375 L527.583314,2532.79166 L591.374,2469 L594.5,2469 L590.083275,2473.41673 L514,2549.499 Z M514,2543.249 L514,2540.125 L524.458324,2529.66667 L585.124,2469 L588.25,2469 L577.583314,2479.66656 L514,2543.249 Z M514,2536.999 L514,2533.875 L518.208187,2529.66667 L578.874,2469 L582,2469 L571.333333,2479.66656 L514,2536.999 Z M514,2530.749 L514,2527.625 L518.208187,2523.41683 L572.624,2469 L575.75,2469 L571.333333,2473.41673 L514,2530.749 Z M514,2524.499 L514,2521.375 L518.208187,2517.16684 L561.958206,2473.41673 L566.375,2469 L569.5,2469 L565.083197,2473.41673 L514,2524.499 Z M514,2518.249 L514,2515.125 L518.208187,2510.91684 L560.124,2469 L563.25,2469 L558.833372,2473.41673 L514,2518.249 Z M514,2511.999 L514,2508.875 L518.208187,2504.66685 L549.458245,2473.41673 L553.875,2469 L557,2469 L552.583236,2473.41673 L514,2511.999 Z M514,2505.749 L514,2502.625 L518.208187,2498.41686 L547.624,2469 L550.75,2469 L546.333411,2473.41673 L514,2505.749 Z M514,2499.499 L514,2496.375 L518.208187,2492.16686 L541.374,2469 L544.5,2469 L540.083275,2473.41673 L514,2499.499 Z M514,2493.249 L514,2490.125 L518.208187,2485.91687 L535.124,2469 L538.25,2469 L527.583314,2479.66656 L514,2493.249 Z M514,2486.999 L514,2483.875 L518.208187,2479.66687 L528.874,2469 L532,2469 L521.333333,2479.66656 L514,2486.999 Z M514,2480.749 L514,2477.625 L518.208187,2473.41673 L522.624,2469 L525.75,2469 L521.333333,2473.41673 L514,2480.749 Z M519.5,2469 L515.083197,2473.41673 L514,2474.499 L514,2471.375 L516.375,2469 L519.5,2469 Z"></path>
    </g>
  </g>
</svg></g></pattern></defs></g> <defs><filter id="colors8202746633"><feColorMatrix type="matrix" values="0 0 0 0 0.8984375  0 0 0 0 0.56640625  0 0 0 0 0.21875  0 0 0 1 0" class="icon-fecolormatrix"></feColorMatrix></filter> <filter id="colorsf3152645559"><feColorMatrix type="matrix" values="0 0 0 0 0.99609375  0 0 0 0 0.99609375  0 0 0 0 0.99609375  0 0 0 1 0" class="icon-fecolormatrix"></feColorMatrix></filter> <filter id="colorsb8664329482"><feColorMatrix type="matrix" values="0 0 0 0 0  0 0 0 0 0  0 0 0 0 0  0 0 0 1 0" class="icon-fecolormatrix"></feColorMatrix></filter></defs></g></g> <g transform="translate(0,14.206871032714844)"><g data-gra="path-name" fill-rule="" class="tp-name"><g transform="scale(1.2800000000000002)"><g><path d="M8.85 3.31Q6.54 3.31 4.56 2.53 2.58 1.75 1.37 0.17 0.15-1.41 0.15-3.65L0.15-3.65Q0.15-6.46 1.9-7.69 3.65-8.93 6-8.93L6-8.93Q4.79-7.68 4.16-6.31 3.53-4.94 3.53-3.65L3.53-3.65Q3.53-1.6 5.11-0.15 6.69 1.29 9.5 1.29L9.5 1.29Q11.29 1.29 12.9 0.7 14.52 0.11 15.52-1.06 16.53-2.24 16.53-3.84L16.53-3.84Q16.53-5.24 15.73-6.35 14.93-7.45 13.78-8.25 12.62-9.04 10.64-10.11L10.64-10.11Q8.55-11.25 7.26-12.12 5.97-13 5.09-14.27 4.22-15.54 4.22-17.21L4.22-17.21Q4.22-19.38 5.62-21.77 7.03-24.17 9.58-25.76 12.12-27.36 15.28-27.36L15.28-27.36Q20.03-27.36 20.03-23.37L20.03-23.37Q20.03-21.43 19.09-19.06 18.16-16.68 16.99-14.86L16.99-14.86Q15.31-15.2 15.31-16.8L15.31-16.8Q15.31-17.52 15.6-18.45 15.88-19.38 16.42-20.67L16.42-20.67Q16.95-22.12 17.21-22.95 17.48-23.79 17.48-24.47L17.48-24.47Q17.48-25.19 17.04-25.55 16.61-25.92 15.47-25.92L15.47-25.92Q13.19-25.92 11.29-24.62 9.39-23.33 8.27-21.49 7.14-19.65 7.14-18.09L7.14-18.09Q7.14-16.95 7.83-16.04 8.51-15.12 9.56-14.46 10.6-13.79 12.39-12.84L12.39-12.84Q14.63-11.63 15.98-10.72 17.33-9.8 18.3-8.36 19.27-6.92 19.27-4.9L19.27-4.9Q19.27-2.39 17.77-0.53 16.26 1.33 13.85 2.32 11.44 3.31 8.85 3.31L8.85 3.31ZM25 1.75Q23.26 1.75 22.27 0.74 21.28-0.27 21.28-2.24L21.28-2.24Q21.28-3.72 21.85-6.02 22.42-8.32 23.37-10.91L23.37-10.91Q22.38-11.1 22.04-11.25L22.04-11.25 22.04-12.43Q22.95-12.31 23.86-12.24L23.86-12.24Q25.57-16.53 27.53-19.61 29.49-22.69 30.7-22.69L30.7-22.69Q31.12-22.69 31.45-22.38 31.77-22.08 31.77-21.58L31.77-21.58Q31.77-20.98 31.24-19.95 30.7-18.92 29.49-16.83L29.49-16.83Q27.82-14.02 26.87-12.12L26.87-12.12Q31.24-12.12 33.82-12.39L33.82-12.39 33.82-11.13Q29.34-10.68 26.18-10.68L26.18-10.68Q24.21-6 24.21-3.04L24.21-3.04Q24.21-1.48 24.7-0.84 25.19-0.19 26.26-0.19L26.26-0.19Q28.16-0.19 30.15-1.92 32.15-3.65 33.63-6.61L33.63-6.61 34.16-6.23Q32.6-2.7 30.13-0.47 27.66 1.75 25 1.75L25 1.75ZM35.38 1.14Q34.12 1.14 33.29-0.04 32.45-1.22 32.45-2.81L32.45-2.81Q32.45-4.18 33.06-6.23 33.67-8.28 34.48-9.8 35.3-11.32 35.91-11.32L35.91-11.32Q36.18-11.32 36.73-11.04 37.28-10.75 37.7-10.34L37.7-10.34Q36.9-9.16 36.04-6.95 35.19-4.75 35.19-3.15L35.19-3.15Q35.19-2.43 35.4-1.65 35.61-0.87 36.33-0.87L36.33-0.87Q37.73-0.87 39.69-4.01 41.65-7.14 43.05-10.37L43.05-10.37Q45.33-9.99 45.33-9.08L45.33-9.08Q45.33-9.01 44.88-7.98L44.88-7.98Q44.08-6.12 43.51-4.52 42.94-2.93 42.94-1.75L42.94-1.75Q42.94-0.42 43.97-0.42L43.97-0.42Q44.76-0.42 45.88-1.16 47.01-1.9 48.18-3.29 49.36-4.67 50.24-6.5L50.24-6.5 50.81-6.04Q49.97-3.99 48.64-2.36 47.31-0.72 45.77 0.21 44.23 1.14 42.83 1.14L42.83 1.14Q41.15 1.14 40.68-0.02 40.2-1.18 40.2-3.12L40.2-3.12Q38.91-1.14 37.77 0 36.63 1.14 35.38 1.14L35.38 1.14ZM51.87 1.14Q50.62 1.14 49.63 0.27 48.64-0.61 48.64-2.28L48.64-2.28Q48.64-4.41 50.27-7.2 51.91-9.99 54.42-11.97 56.92-13.95 59.43-13.95L59.43-13.95Q61.29-13.95 61.29-12.73L61.29-12.73Q61.29-12.12 60.84-11.86L60.84-11.86Q60.53-12.27 59.51-12.27L59.51-12.27Q57.57-12.27 55.82-10.58 54.07-8.89 52.99-6.61 51.91-4.33 51.91-2.81L51.91-2.81Q51.91-2.05 52.21-1.63 52.52-1.22 53.12-1.22L53.12-1.22Q54.19-1.22 55.61-2.45 57.04-3.69 58.54-5.97 60.04-8.25 61.22-11.29L61.22-11.29Q64.18-18.89 66.23-23.12 68.29-27.36 69.81-27.36L69.81-27.36Q70.22-27.36 70.55-27.04 70.87-26.71 70.87-26.22L70.87-26.22Q70.87-25.57 70.28-24.24 69.69-22.91 68.29-20.06L68.29-20.06Q65.51-14.44 63.88-10.24 62.24-6.04 62.24-2.62L62.24-2.62Q62.24-1.71 62.41-1.39 62.59-1.06 63-1.06L63-1.06Q64.3-1.06 65.97-2.58 67.64-4.1 68.89-6.69L68.89-6.69 69.62-6.08Q68.36-2.96 66.16-0.99 63.95 0.99 61.79 0.99L61.79 0.99Q60.31 0.99 59.66 0.08 59.01-0.84 59.01-2.32L59.01-2.32Q59.01-3.19 59.32-4.79L59.32-4.79Q57.46-2.09 55.48-0.47 53.5 1.14 51.87 1.14L51.87 1.14ZM69.73 10.64Q68.67 10.64 67.91 10.01 67.15 9.39 67.15 8.17L67.15 8.17Q67.15 6.69 68.27 5.47 69.39 4.26 70.87 3.42 72.35 2.58 74.71 1.48L74.71 1.48Q75.35-0.15 76.53-4.45L76.53-4.45Q75.16-2.51 73.85-1.41 72.54-0.3 71.06-0.3L71.06-0.3Q69.81-0.3 68.82-1.06 67.83-1.82 67.83-3.46L67.83-3.46Q67.83-4.75 68.44-6.75 69.05-8.74 69.88-10.24 70.72-11.74 71.33-11.74L71.33-11.74Q71.71-11.74 72.47-11.34 73.23-10.94 73.38-10.49L73.38-10.49Q72.66-9.5 71.8-7.18 70.95-4.86 70.95-3.53L70.95-3.53Q70.95-2.13 72.05-2.13L72.05-2.13Q73.19-2.13 74.52-3.46 75.85-4.79 77.06-6.73L77.06-6.73Q77.14-6.99 77.29-7.98 77.44-8.97 77.98-9.71 78.51-10.45 79.5-10.45L79.5-10.45Q79.65-10.45 80.71-10.3L80.71-10.3Q80.67-9.35 79.82-6.16 78.96-2.96 77.82 0.08L77.82 0.08Q79.69-0.68 81.34-2.24 82.99-3.8 83.94-6.35L83.94-6.35 84.59-5.81Q83.79-3.19 81.83-1.41 79.88 0.38 77.33 1.52L77.33 1.52Q75.54 5.74 73.7 8.19 71.86 10.64 69.73 10.64L69.73 10.64ZM69.35 9.23Q70.15 9.23 71.44 7.62 72.73 6 73.99 3.15L73.99 3.15Q71.78 4.26 70.2 5.59 68.63 6.92 68.63 8.17L68.63 8.17Q68.63 8.59 68.8 8.91 68.97 9.23 69.35 9.23L69.35 9.23ZM91.96 3.31Q88.31 3.31 88.24 0.38L88.24 0.38Q88.24-0.61 88.6-1.96 88.96-3.31 89.57-5.21L89.57-5.21Q90.82-9.01 92.24-12.56 93.67-16.11 95.76-21.05L95.76-21.05 97.13-24.28Q93.37-24.24 90.99-24.04 88.62-23.83 85.99-23.37L85.99-23.37Q86.22-25.61 88.81-26.49 91.39-27.36 96.06-27.36L96.06-27.36Q99.14-27.36 103.7-26.9L103.7-26.9Q107.69-26.52 109.55-26.52L109.55-26.52Q108.03-25.08 105.51-24.68 102.98-24.28 99.45-24.28L99.45-24.28Q96.33-16.61 93.29-5.43L93.29-5.43Q92.42-2.2 92.13-0.8 91.85 0.61 91.85 2.2L91.85 2.2Q91.85 2.74 91.96 3.31L91.96 3.31ZM101.95 1.22Q100.4 1.22 99.69 0.19 98.99-0.84 98.99-2.36L98.99-2.36Q98.99-3.95 99.66-5.66 100.32-7.37 101.38-8.51 102.45-9.65 103.55-9.65L103.55-9.65Q104.01-9.65 104.73-9.35L104.73-9.35Q104.96-11.1 105.96-12.24 106.97-13.38 108.79-13.38L108.79-13.38Q110.31-13.38 111.04-12.52 111.76-11.67 111.76-10.3L111.76-10.3Q111.76-8.97 111.05-7.26 110.35-5.55 109.25-3.84L109.25-3.84Q109.71-3.61 110.31-3.61L110.31-3.61Q111.38-3.61 112.59-4.31 113.81-5.02 114.46-6.46L114.46-6.46 115.14-5.97Q114.34-4.14 112.99-3.19 111.64-2.24 110.2-2.24L110.2-2.24Q109.33-2.24 108.3-2.58L108.3-2.58Q106.89-0.91 105.22 0.15 103.55 1.22 101.95 1.22L101.95 1.22ZM107.96-4.64Q108.91-6.04 109.53-7.56 110.16-9.08 110.16-10.3L110.16-10.3Q110.16-11.97 109.1-11.97L109.1-11.97Q108.6-11.97 108.07-11.48 107.54-10.98 107.2-10.16 106.86-9.35 106.86-8.36L106.86-8.36Q106.86-7.49 107.16-6.37 107.46-5.24 107.96-4.64L107.96-4.64ZM103.32-0.72Q104.01-0.72 104.99-1.48 105.98-2.24 106.97-3.42L106.97-3.42Q104.8-5.32 104.69-9.01L104.69-9.01Q104.23-8.78 103.59-7.6 102.94-6.42 102.49-4.98 102.03-3.53 102.03-2.47L102.03-2.47Q102.03-0.72 103.32-0.72L103.32-0.72ZM116.09 1.22Q114.53 1.22 113.83 0.19 113.13-0.84 113.13-2.36L113.13-2.36Q113.13-3.95 113.79-5.66 114.46-7.37 115.52-8.51 116.58-9.65 117.69-9.65L117.69-9.65Q118.14-9.65 118.86-9.35L118.86-9.35Q119.09-11.1 120.1-12.24 121.11-13.38 122.93-13.38L122.93-13.38Q124.45-13.38 125.17-12.52 125.89-11.67 125.89-10.3L125.89-10.3Q125.89-8.97 125.19-7.26 124.49-5.55 123.39-3.84L123.39-3.84Q123.84-3.61 124.45-3.61L124.45-3.61Q125.51-3.61 126.73-4.31 127.95-5.02 128.59-6.46L128.59-6.46 129.28-5.97Q128.48-4.14 127.13-3.19 125.78-2.24 124.34-2.24L124.34-2.24Q123.46-2.24 122.44-2.58L122.44-2.58Q121.03-0.91 119.36 0.15 117.69 1.22 116.09 1.22L116.09 1.22ZM122.09-4.64Q123.04-6.04 123.67-7.56 124.3-9.08 124.3-10.3L124.3-10.3Q124.3-11.97 123.23-11.97L123.23-11.97Q122.74-11.97 122.21-11.48 121.68-10.98 121.33-10.16 120.99-9.35 120.99-8.36L120.99-8.36Q120.99-7.49 121.3-6.37 121.6-5.24 122.09-4.64L122.09-4.64ZM117.46-0.72Q118.14-0.72 119.13-1.48 120.12-2.24 121.11-3.42L121.11-3.42Q118.94-5.32 118.83-9.01L118.83-9.01Q118.37-8.78 117.72-7.6 117.08-6.42 116.62-4.98 116.17-3.53 116.17-2.47L116.17-2.47Q116.17-0.72 117.46-0.72L117.46-0.72ZM130.99 1.14Q129.31 1.14 128.55 0.04 127.79-1.06 127.79-2.89L127.79-2.89Q127.79-6.38 130.17-12.24 132.54-18.09 135.51-22.72 138.47-27.36 139.88-27.36L139.88-27.36Q140.52-27.36 140.98-26.35 141.44-25.35 141.47-24.32L141.47-24.32Q141.47-22.57 140.07-19.21 138.66-15.85 136.29-12.39 133.91-8.93 131.21-6.8L131.21-6.8Q130.8-4.45 130.8-3.23L130.8-3.23Q130.8-1.9 131.23-1.25 131.67-0.61 132.43-0.61L132.43-0.61Q133.76-0.61 135.26-2.38 136.76-4.14 137.94-6.65L137.94-6.65 138.85-6.16Q137.18-2.7 135.17-0.78 133.15 1.14 130.99 1.14L130.99 1.14ZM131.9-9.16Q133.95-11.36 135.75-14.33 137.56-17.29 138.64-19.95 139.73-22.61 139.73-23.9L139.73-23.9Q139.23-23.9 137.73-21.58 136.23-19.27 134.58-15.83 132.92-12.39 131.9-9.16L131.9-9.16Z" transform="translate(-0.15000000596046448, 27.360000610351562)"></path></g> <!----> <!----> <!----> <!----> <!----> <!----> <!----></g></g> <!----></g></g></g><mask id="1a050deb-f995-4c6f-b821-1f46c28df0b2"><g fill="white"><g><rect fill-opacity="1" stroke-width="2" x="0" y="0" width="52.64999999999981" height="53.053738953435456" class="image-rect"></rect> <g class="image-svg-svg"><g data-gra-ignore="true"><svg x="0" y="0" width="52.64999999999981" height="53.053738953435456" style="overflow: visible;"><svg xmlns="http://www.w3.org/2000/svg" viewBox="0 0 2478 2497" style="overflow: visible;"><g><path d="M456.38 2052.32V2497l415.83-236.41a1323.34 1323.34 0 0 0 366.79 51.47c684.33 0 1239-517.61 1239-1156S1923.33 0 1239 0 0 517.57 0 1156c0 361.52 177.86 684.33 456.38 896.28z"></path></g></svg></svg></g><defs><pattern id="E4XPS9qPGSwHx9gQPaFgM" x="0" y="82.5" width="165" height="165" viewBox="0 0 100 100" preserveAspectRatio="xMidYMid meet" patternTransform="matrix(1,0,0,1,0,0)" patternUnits="userSpaceOnUse"><g data-gra="path-name"><svg width="100" height="100" viewBox="0 0 100 100" xmlns="http://www.w3.org/2000/svg">
  <g stroke="none" stroke-width="1" fill-rule="evenodd">
    <g transform="translate(-514.000000, -2469.000000)">
      <path d="M519.499,2569 L516.375,2569 L527.583314,2557.79164 L614,2471.374 L614,2474.499 L519.499,2569 Z M614,2477.624 L614,2480.749 L525.749,2569 L522.624,2569 L614,2477.624 Z M614,2483.874 L614,2486.999 L531.999,2569 L528.874,2569 L614,2483.874 Z M614,2490.124 L614,2493.249 L538.249,2569 L535.124,2569 L614,2490.124 Z M614,2496.374 L614,2499.499 L544.499,2569 L541.374,2569 L614,2496.374 Z M614,2502.624 L614,2505.749 L550.749,2569 L547.624,2569 L614,2502.624 Z M614,2508.874 L614,2511.999 L556.999,2569 L553.874,2569 L614,2508.874 Z M614,2515.124 L614,2518.249 L563.249,2569 L560.124,2569 L614,2515.124 Z M614,2521.374 L614,2524.499 L569.499,2569 L566.374,2569 L614,2521.374 Z M614,2527.624 L614,2530.749 L575.749,2569 L572.624,2569 L614,2527.624 Z M614,2533.874 L614,2536.999 L581.999,2569 L578.874,2569 L614,2533.874 Z M614,2540.124 L614,2543.249 L588.249,2569 L585.124,2569 L614,2540.124 Z M614,2546.374 L614,2549.499 L594.499,2569 L591.374,2569 L614,2546.374 Z M614,2552.624 L614,2555.749 L600.749,2569 L597.624,2569 L614,2552.624 Z M614,2558.874 L614,2561.999 L606.999,2569 L603.874,2569 L614,2558.874 Z M614,2565.124 L614,2568.249 L613.249,2569 L610.124,2569 L614,2565.124 Z M514,2568.249 L514,2565.125 L527.583314,2551.54149 L610.124,2469 L613.25,2469 L608.833372,2473.41673 L540.083275,2542.16665 L521.333333,2560.91467 L521.333333,2560.91663 L514,2568.249 Z M514,2561.999 L514,2558.875 L527.583314,2545.29165 L599.458245,2473.41673 L603.875,2469 L607,2469 L602.583236,2473.41673 L514,2561.999 Z M514,2555.749 L514,2552.625 L527.583314,2539.04166 L597.624,2469 L600.75,2469 L596.333411,2473.41673 L514,2555.749 Z M514,2549.499 L514,2546.375 L527.583314,2532.79166 L591.374,2469 L594.5,2469 L590.083275,2473.41673 L514,2549.499 Z M514,2543.249 L514,2540.125 L524.458324,2529.66667 L585.124,2469 L588.25,2469 L577.583314,2479.66656 L514,2543.249 Z M514,2536.999 L514,2533.875 L518.208187,2529.66667 L578.874,2469 L582,2469 L571.333333,2479.66656 L514,2536.999 Z M514,2530.749 L514,2527.625 L518.208187,2523.41683 L572.624,2469 L575.75,2469 L571.333333,2473.41673 L514,2530.749 Z M514,2524.499 L514,2521.375 L518.208187,2517.16684 L561.958206,2473.41673 L566.375,2469 L569.5,2469 L565.083197,2473.41673 L514,2524.499 Z M514,2518.249 L514,2515.125 L518.208187,2510.91684 L560.124,2469 L563.25,2469 L558.833372,2473.41673 L514,2518.249 Z M514,2511.999 L514,2508.875 L518.208187,2504.66685 L549.458245,2473.41673 L553.875,2469 L557,2469 L552.583236,2473.41673 L514,2511.999 Z M514,2505.749 L514,2502.625 L518.208187,2498.41686 L547.624,2469 L550.75,2469 L546.333411,2473.41673 L514,2505.749 Z M514,2499.499 L514,2496.375 L518.208187,2492.16686 L541.374,2469 L544.5,2469 L540.083275,2473.41673 L514,2499.499 Z M514,2493.249 L514,2490.125 L518.208187,2485.91687 L535.124,2469 L538.25,2469 L527.583314,2479.66656 L514,2493.249 Z M514,2486.999 L514,2483.875 L518.208187,2479.66687 L528.874,2469 L532,2469 L521.333333,2479.66656 L514,2486.999 Z M514,2480.749 L514,2477.625 L518.208187,2473.41673 L522.624,2469 L525.75,2469 L521.333333,2473.41673 L514,2480.749 Z M519.5,2469 L515.083197,2473.41673 L514,2474.499 L514,2471.375 L516.375,2469 L519.5,2469 Z"></path>
    </g>
  </g>
</svg></g></pattern></defs></g> <defs>  </defs></g></g> <g transform="translate(-135.11980056762695,14.206871032714844)" fill="black" stroke="black" stroke-width="6" stroke-linejoin="round"><g data-gra="path-name" fill-rule="" class="tp-name"><g transform="scale(1.2800000000000002)"><g><path d="M8.85 3.31Q6.54 3.31 4.56 2.53 2.58 1.75 1.37 0.17 0.15-1.41 0.15-3.65L0.15-3.65Q0.15-6.46 1.9-7.69 3.65-8.93 6-8.93L6-8.93Q4.79-7.68 4.16-6.31 3.53-4.94 3.53-3.65L3.53-3.65Q3.53-1.6 5.11-0.15 6.69 1.29 9.5 1.29L9.5 1.29Q11.29 1.29 12.9 0.7 14.52 0.11 15.52-1.06 16.53-2.24 16.53-3.84L16.53-3.84Q16.53-5.24 15.73-6.35 14.93-7.45 13.78-8.25 12.62-9.04 10.64-10.11L10.64-10.11Q8.55-11.25 7.26-12.12 5.97-13 5.09-14.27 4.22-15.54 4.22-17.21L4.22-17.21Q4.22-19.38 5.62-21.77 7.03-24.17 9.58-25.76 12.12-27.36 15.28-27.36L15.28-27.36Q20.03-27.36 20.03-23.37L20.03-23.37Q20.03-21.43 19.09-19.06 18.16-16.68 16.99-14.86L16.99-14.86Q15.31-15.2 15.31-16.8L15.31-16.8Q15.31-17.52 15.6-18.45 15.88-19.38 16.42-20.67L16.42-20.67Q16.95-22.12 17.21-22.95 17.48-23.79 17.48-24.47L17.48-24.47Q17.48-25.19 17.04-25.55 16.61-25.92 15.47-25.92L15.47-25.92Q13.19-25.92 11.29-24.62 9.39-23.33 8.27-21.49 7.14-19.65 7.14-18.09L7.14-18.09Q7.14-16.95 7.83-16.04 8.51-15.12 9.56-14.46 10.6-13.79 12.39-12.84L12.39-12.84Q14.63-11.63 15.98-10.72 17.33-9.8 18.3-8.36 19.27-6.92 19.27-4.9L19.27-4.9Q19.27-2.39 17.77-0.53 16.26 1.33 13.85 2.32 11.44 3.31 8.85 3.31L8.85 3.31ZM25 1.75Q23.26 1.75 22.27 0.74 21.28-0.27 21.28-2.24L21.28-2.24Q21.28-3.72 21.85-6.02 22.42-8.32 23.37-10.91L23.37-10.91Q22.38-11.1 22.04-11.25L22.04-11.25 22.04-12.43Q22.95-12.31 23.86-12.24L23.86-12.24Q25.57-16.53 27.53-19.61 29.49-22.69 30.7-22.69L30.7-22.69Q31.12-22.69 31.45-22.38 31.77-22.08 31.77-21.58L31.77-21.58Q31.77-20.98 31.24-19.95 30.7-18.92 29.49-16.83L29.49-16.83Q27.82-14.02 26.87-12.12L26.87-12.12Q31.24-12.12 33.82-12.39L33.82-12.39 33.82-11.13Q29.34-10.68 26.18-10.68L26.18-10.68Q24.21-6 24.21-3.04L24.21-3.04Q24.21-1.48 24.7-0.84 25.19-0.19 26.26-0.19L26.26-0.19Q28.16-0.19 30.15-1.92 32.15-3.65 33.63-6.61L33.63-6.61 34.16-6.23Q32.6-2.7 30.13-0.47 27.66 1.75 25 1.75L25 1.75ZM35.38 1.14Q34.12 1.14 33.29-0.04 32.45-1.22 32.45-2.81L32.45-2.81Q32.45-4.18 33.06-6.23 33.67-8.28 34.48-9.8 35.3-11.32 35.91-11.32L35.91-11.32Q36.18-11.32 36.73-11.04 37.28-10.75 37.7-10.34L37.7-10.34Q36.9-9.16 36.04-6.95 35.19-4.75 35.19-3.15L35.19-3.15Q35.19-2.43 35.4-1.65 35.61-0.87 36.33-0.87L36.33-0.87Q37.73-0.87 39.69-4.01 41.65-7.14 43.05-10.37L43.05-10.37Q45.33-9.99 45.33-9.08L45.33-9.08Q45.33-9.01 44.88-7.98L44.88-7.98Q44.08-6.12 43.51-4.52 42.94-2.93 42.94-1.75L42.94-1.75Q42.94-0.42 43.97-0.42L43.97-0.42Q44.76-0.42 45.88-1.16 47.01-1.9 48.18-3.29 49.36-4.67 50.24-6.5L50.24-6.5 50.81-6.04Q49.97-3.99 48.64-2.36 47.31-0.72 45.77 0.21 44.23 1.14 42.83 1.14L42.83 1.14Q41.15 1.14 40.68-0.02 40.2-1.18 40.2-3.12L40.2-3.12Q38.91-1.14 37.77 0 36.63 1.14 35.38 1.14L35.38 1.14ZM51.87 1.14Q50.62 1.14 49.63 0.27 48.64-0.61 48.64-2.28L48.64-2.28Q48.64-4.41 50.27-7.2 51.91-9.99 54.42-11.97 56.92-13.95 59.43-13.95L59.43-13.95Q61.29-13.95 61.29-12.73L61.29-12.73Q61.29-12.12 60.84-11.86L60.84-11.86Q60.53-12.27 59.51-12.27L59.51-12.27Q57.57-12.27 55.82-10.58 54.07-8.89 52.99-6.61 51.91-4.33 51.91-2.81L51.91-2.81Q51.91-2.05 52.21-1.63 52.52-1.22 53.12-1.22L53.12-1.22Q54.19-1.22 55.61-2.45 57.04-3.69 58.54-5.97 60.04-8.25 61.22-11.29L61.22-11.29Q64.18-18.89 66.23-23.12 68.29-27.36 69.81-27.36L69.81-27.36Q70.22-27.36 70.55-27.04 70.87-26.71 70.87-26.22L70.87-26.22Q70.87-25.57 70.28-24.24 69.69-22.91 68.29-20.06L68.29-20.06Q65.51-14.44 63.88-10.24 62.24-6.04 62.24-2.62L62.24-2.62Q62.24-1.71 62.41-1.39 62.59-1.06 63-1.06L63-1.06Q64.3-1.06 65.97-2.58 67.64-4.1 68.89-6.69L68.89-6.69 69.62-6.08Q68.36-2.96 66.16-0.99 63.95 0.99 61.79 0.99L61.79 0.99Q60.31 0.99 59.66 0.08 59.01-0.84 59.01-2.32L59.01-2.32Q59.01-3.19 59.32-4.79L59.32-4.79Q57.46-2.09 55.48-0.47 53.5 1.14 51.87 1.14L51.87 1.14ZM69.73 10.64Q68.67 10.64 67.91 10.01 67.15 9.39 67.15 8.17L67.15 8.17Q67.15 6.69 68.27 5.47 69.39 4.26 70.87 3.42 72.35 2.58 74.71 1.48L74.71 1.48Q75.35-0.15 76.53-4.45L76.53-4.45Q75.16-2.51 73.85-1.41 72.54-0.3 71.06-0.3L71.06-0.3Q69.81-0.3 68.82-1.06 67.83-1.82 67.83-3.46L67.83-3.46Q67.83-4.75 68.44-6.75 69.05-8.74 69.88-10.24 70.72-11.74 71.33-11.74L71.33-11.74Q71.71-11.74 72.47-11.34 73.23-10.94 73.38-10.49L73.38-10.49Q72.66-9.5 71.8-7.18 70.95-4.86 70.95-3.53L70.95-3.53Q70.95-2.13 72.05-2.13L72.05-2.13Q73.19-2.13 74.52-3.46 75.85-4.79 77.06-6.73L77.06-6.73Q77.14-6.99 77.29-7.98 77.44-8.97 77.98-9.71 78.51-10.45 79.5-10.45L79.5-10.45Q79.65-10.45 80.71-10.3L80.71-10.3Q80.67-9.35 79.82-6.16 78.96-2.96 77.82 0.08L77.82 0.08Q79.69-0.68 81.34-2.24 82.99-3.8 83.94-6.35L83.94-6.35 84.59-5.81Q83.79-3.19 81.83-1.41 79.88 0.38 77.33 1.52L77.33 1.52Q75.54 5.74 73.7 8.19 71.86 10.64 69.73 10.64L69.73 10.64ZM69.35 9.23Q70.15 9.23 71.44 7.62 72.73 6 73.99 3.15L73.99 3.15Q71.78 4.26 70.2 5.59 68.63 6.92 68.63 8.17L68.63 8.17Q68.63 8.59 68.8 8.91 68.97 9.23 69.35 9.23L69.35 9.23ZM91.96 3.31Q88.31 3.31 88.24 0.38L88.24 0.38Q88.24-0.61 88.6-1.96 88.96-3.31 89.57-5.21L89.57-5.21Q90.82-9.01 92.24-12.56 93.67-16.11 95.76-21.05L95.76-21.05 97.13-24.28Q93.37-24.24 90.99-24.04 88.62-23.83 85.99-23.37L85.99-23.37Q86.22-25.61 88.81-26.49 91.39-27.36 96.06-27.36L96.06-27.36Q99.14-27.36 103.7-26.9L103.7-26.9Q107.69-26.52 109.55-26.52L109.55-26.52Q108.03-25.08 105.51-24.68 102.98-24.28 99.45-24.28L99.45-24.28Q96.33-16.61 93.29-5.43L93.29-5.43Q92.42-2.2 92.13-0.8 91.85 0.61 91.85 2.2L91.85 2.2Q91.85 2.74 91.96 3.31L91.96 3.31ZM101.95 1.22Q100.4 1.22 99.69 0.19 98.99-0.84 98.99-2.36L98.99-2.36Q98.99-3.95 99.66-5.66 100.32-7.37 101.38-8.51 102.45-9.65 103.55-9.65L103.55-9.65Q104.01-9.65 104.73-9.35L104.73-9.35Q104.96-11.1 105.96-12.24 106.97-13.38 108.79-13.38L108.79-13.38Q110.31-13.38 111.04-12.52 111.76-11.67 111.76-10.3L111.76-10.3Q111.76-8.97 111.05-7.26 110.35-5.55 109.25-3.84L109.25-3.84Q109.71-3.61 110.31-3.61L110.31-3.61Q111.38-3.61 112.59-4.31 113.81-5.02 114.46-6.46L114.46-6.46 115.14-5.97Q114.34-4.14 112.99-3.19 111.64-2.24 110.2-2.24L110.2-2.24Q109.33-2.24 108.3-2.58L108.3-2.58Q106.89-0.91 105.22 0.15 103.55 1.22 101.95 1.22L101.95 1.22ZM107.96-4.64Q108.91-6.04 109.53-7.56 110.16-9.08 110.16-10.3L110.16-10.3Q110.16-11.97 109.1-11.97L109.1-11.97Q108.6-11.97 108.07-11.48 107.54-10.98 107.2-10.16 106.86-9.35 106.86-8.36L106.86-8.36Q106.86-7.49 107.16-6.37 107.46-5.24 107.96-4.64L107.96-4.64ZM103.32-0.72Q104.01-0.72 104.99-1.48 105.98-2.24 106.97-3.42L106.97-3.42Q104.8-5.32 104.69-9.01L104.69-9.01Q104.23-8.78 103.59-7.6 102.94-6.42 102.49-4.98 102.03-3.53 102.03-2.47L102.03-2.47Q102.03-0.72 103.32-0.72L103.32-0.72ZM116.09 1.22Q114.53 1.22 113.83 0.19 113.13-0.84 113.13-2.36L113.13-2.36Q113.13-3.95 113.79-5.66 114.46-7.37 115.52-8.51 116.58-9.65 117.69-9.65L117.69-9.65Q118.14-9.65 118.86-9.35L118.86-9.35Q119.09-11.1 120.1-12.24 121.11-13.38 122.93-13.38L122.93-13.38Q124.45-13.38 125.17-12.52 125.89-11.67 125.89-10.3L125.89-10.3Q125.89-8.97 125.19-7.26 124.49-5.55 123.39-3.84L123.39-3.84Q123.84-3.61 124.45-3.61L124.45-3.61Q125.51-3.61 126.73-4.31 127.95-5.02 128.59-6.46L128.59-6.46 129.28-5.97Q128.48-4.14 127.13-3.19 125.78-2.24 124.34-2.24L124.34-2.24Q123.46-2.24 122.44-2.58L122.44-2.58Q121.03-0.91 119.36 0.15 117.69 1.22 116.09 1.22L116.09 1.22ZM122.09-4.64Q123.04-6.04 123.67-7.56 124.3-9.08 124.3-10.3L124.3-10.3Q124.3-11.97 123.23-11.97L123.23-11.97Q122.74-11.97 122.21-11.48 121.68-10.98 121.33-10.16 120.99-9.35 120.99-8.36L120.99-8.36Q120.99-7.49 121.3-6.37 121.6-5.24 122.09-4.64L122.09-4.64ZM117.46-0.72Q118.14-0.72 119.13-1.48 120.12-2.24 121.11-3.42L121.11-3.42Q118.94-5.32 118.83-9.01L118.83-9.01Q118.37-8.78 117.72-7.6 117.08-6.42 116.62-4.98 116.17-3.53 116.17-2.47L116.17-2.47Q116.17-0.72 117.46-0.72L117.46-0.72ZM130.99 1.14Q129.31 1.14 128.55 0.04 127.79-1.06 127.79-2.89L127.79-2.89Q127.79-6.38 130.17-12.24 132.54-18.09 135.51-22.72 138.47-27.36 139.88-27.36L139.88-27.36Q140.52-27.36 140.98-26.35 141.44-25.35 141.47-24.32L141.47-24.32Q141.47-22.57 140.07-19.21 138.66-15.85 136.29-12.39 133.91-8.93 131.21-6.8L131.21-6.8Q130.8-4.45 130.8-3.23L130.8-3.23Q130.8-1.9 131.23-1.25 131.67-0.61 132.43-0.61L132.43-0.61Q133.76-0.61 135.26-2.38 136.76-4.14 137.94-6.65L137.94-6.65 138.85-6.16Q137.18-2.7 135.17-0.78 133.15 1.14 130.99 1.14L130.99 1.14ZM131.9-9.16Q133.95-11.36 135.75-14.33 137.56-17.29 138.64-19.95 139.73-22.61 139.73-23.9L139.73-23.9Q139.23-23.9 137.73-21.58 136.23-19.27 134.58-15.83 132.92-12.39 131.9-9.16L131.9-9.16Z" transform="translate(-0.15000000596046448, 27.360000610351562)"></path></g>       </g></g> </g></mask><defs v-gra="od"></defs></svg>